<?xml version="1.0" encoding="utf-8"?>
<!-- Generator: Adobe Illustrator 23.0.3, SVG Export Plug-In . SVG Version: 6.00 Build 0)  -->
<svg version="1.1" id="Capa_1" xmlns="http://www.w3.org/2000/svg" xmlns:xlink="http://www.w3.org/1999/xlink" x="0px" y="0px"
	 viewBox="0 0 80 80" style="enable-background:new 0 0 80 80;" xml:space="preserve">
<style type="text/css">
	.st0{stroke:#000000;stroke-miterlimit:10;}
</style>
<g id="line_15_">
	<path d="M40,0c-2.7,0-4.9,2-5.2,4.6H0v5h4.7V59H0v5h24.2l-5.9,16h5l2.4-6.7h28.5l2.4,6.7h5l-5.8-16H80v-5h-4.7V9.6H80v-5H45.2
		C44.9,2,42.7,0,40,0z M27.6,68.3l1.6-4.4h21.7l1.6,4.4H27.6z M70.3,59H9.7V9.6h60.6L70.3,59L70.3,59z"/>
	<rect x="36.1" y="20" width="23.4" height="5"/>
	<rect x="36.1" y="31.8" width="23.4" height="5"/>
	<rect x="36.1" y="43.5" width="23.4" height="5"/>
</g>
<g>
	<g id="Layer_1-2">
		<polygon class="st0" points="24.4,23.8 22.8,22.1 21.6,23.3 24.4,26.1 30.5,20.1 29.3,18.9 		"/>
	</g>
</g>
<g>
	<g id="Layer_1-2_1_">
		<polygon class="st0" points="24.4,35.5 22.8,33.9 21.6,35.1 24.4,37.9 30.5,31.9 29.3,30.6 		"/>
	</g>
</g>
<g>
	<g id="Layer_1-2_2_">
		<polygon class="st0" points="24.4,47.3 22.8,45.7 21.6,46.9 24.4,49.7 30.5,43.6 29.3,42.4 		"/>
	</g>
</g>
</svg>
