<?xml version="1.0" encoding="UTF-8" standalone="no"?>
<svg
   xmlns:dc="http://purl.org/dc/elements/1.1/"
   xmlns:cc="http://creativecommons.org/ns#"
   xmlns:rdf="http://www.w3.org/1999/02/22-rdf-syntax-ns#"
   xmlns:svg="http://www.w3.org/2000/svg"
   xmlns="http://www.w3.org/2000/svg"
   viewBox="0 0 510 49.374802"
   height="49.374802"
   width="510"
   xml:space="preserve"
   id="svg2"
   version="1.1"><metadata
     id="metadata8"><rdf:RDF><cc:Work
         rdf:about=""><dc:format>image/svg+xml</dc:format><dc:type
           rdf:resource="http://purl.org/dc/dcmitype/StillImage" /></cc:Work></rdf:RDF></metadata><defs
     id="defs6"><clipPath
       id="clipPath20"
       clipPathUnits="userSpaceOnUse"><path
         id="path18"
         d="M 0,37.031 H 382.5 V 0 H 0 Z" /></clipPath></defs><g
     transform="matrix(1.3333333,0,0,-1.3333333,0,49.3748)"
     id="g10"><path
       id="path12"
       style="fill:#231f20;fill-opacity:1;fill-rule:nonzero;stroke:none"
       d="m 76.422,6.031 h 0.382 v 24.97 h -0.382 z" /><g
       id="g14"><g
         clip-path="url(#clipPath20)"
         id="g16"><g
           transform="translate(39.5718,28.3314)"
           id="g22"><path
             id="path24"
             style="fill:#231f20;fill-opacity:1;fill-rule:nonzero;stroke:none"
             d="m 0,0 c 0.43,1.125 1.85,1.125 2.99,1.125 h 0.212 v 1.55 c 0,0 -4.444,-0.097 -5.804,-0.097 -1.399,0 -5.552,0.097 -5.552,0.097 v -1.55 h 0.212 c 1.14,0 2.56,0 2.988,-1.123 0.357,-0.964 0.357,-3.691 0.357,-4.855 v -9.906 c 0,-1.165 0,-3.891 -0.356,-4.854 -0.429,-1.124 -1.849,-1.124 -2.989,-1.124 h -0.212 v -1.552 c 0,0.004 3.592,0.154 5.559,0.154 2.264,0 5.797,-0.154 5.797,-0.154 v 1.552 H 2.99 c -1.14,0 -2.56,0 -2.989,1.122 -0.357,0.965 -0.357,3.691 -0.357,4.856 v 9.906 c 0,1.164 0,3.891 0.356,4.853" /></g><g
           transform="translate(46.144,30.9823)"
           id="g26"><path
             id="path28"
             style="fill:#231f20;fill-opacity:1;fill-rule:nonzero;stroke:none"
             d="m 0,0 v -6.475 h 1.54 l 0.007,0.204 c 0.14,4.213 1.752,4.391 5.384,4.391 0.125,0 0.25,0 0.373,10e-4 0.903,0.006 1.755,0.011 2.09,-0.322 0.112,-0.111 0.167,-0.265 0.167,-0.469 v -17.021 c 0,-2.526 -0.354,-3.57 -3.911,-3.717 l -0.203,-0.008 v -1.543 c 0,0 4.147,0.152 6.546,0.152 1.831,0 5.921,-0.152 5.921,-0.152 v 1.543 l -0.204,0.008 c -3.557,0.147 -3.91,1.191 -3.91,3.717 V -2.67 c 0,0.175 0.053,0.313 0.163,0.422 0.41,0.403 1.54,0.386 2.448,0.373 0.172,-0.003 0.341,-0.005 0.501,-0.005 3.551,0 4.696,-1.028 4.903,-4.397 l 0.012,-0.198 h 1.529 V 0 c 0,0 -8.962,-0.059 -11.678,-0.059 C 8.962,-0.059 0,0 0,0" /></g><g
           transform="translate(11.1045,19.1585)"
           id="g30"><path
             id="path32"
             style="fill:#231f20;fill-opacity:1;fill-rule:nonzero;stroke:none"
             d="m 0,0 c 0,0 -0.001,9.014 -0.002,9.067 -0.006,0.36 -0.016,0.851 0.284,0.991 0.208,0.091 2.214,0.019 2.323,0.019 3.162,0 4.977,-1.851 4.977,-5.076 C 7.582,2.65 6.957,1.302 5.556,0.625 4.25,-0.005 0,0 0,0 m 16.868,-11.565 c -1.791,0.281 -2.329,0.484 -3.505,1.845 l -7.371,8.462 c 3.882,0.506 6.275,3.072 6.275,6.778 0,2.413 -0.933,4.153 -2.768,5.173 -1.397,0.776 -3.337,1.153 -5.936,1.153 -0.777,-0.019 -2.648,-0.083 -4.709,-0.083 -2.137,0 -6.577,0.086 -6.577,0.086 v -1.551 h 0.308 C -6.238,10.306 -4.914,10.3 -4.562,9.183 -4.24,8.216 -4.24,5.489 -4.24,4.593 V -5.585 c 0,-1.124 0,-2.831 -0.149,-3.998 -0.044,-0.345 -0.101,-0.645 -0.174,-0.866 -0.36,-1.114 -1.795,-1.114 -2.949,-1.114 h -0.211 v -1.551 c 0,0 3.456,0.153 5.766,0.153 1.986,0 5.44,-0.149 5.44,-0.153 v 1.551 H 3.176 c -1.157,-0.005 -2.47,-0.002 -2.853,1.116 -0.074,0.221 -0.13,0.522 -0.174,0.864 C 0,-8.425 0,-6.764 0,-5.857 v 4.161 C 1.379,-1.708 1.499,-1.853 2.208,-2.71 2.34,-2.868 2.49,-3.048 2.663,-3.248 l 6.152,-7.634 1.809,-2.232 c 0,0 1.983,0.084 2.947,0.084 1.401,0 3.476,-0.087 3.476,-0.087 v 1.524 z" /></g><g
           transform="translate(39.5718,28.3314)"
           id="g34"><path
             id="path36"
             style="fill:#231f20;fill-opacity:1;fill-rule:nonzero;stroke:none"
             d="m 0,0 c 0.43,1.125 1.85,1.125 2.99,1.125 h 0.212 v 1.55 c 0,0 -4.444,-0.097 -5.804,-0.097 -1.399,0 -5.552,0.097 -5.552,0.097 v -1.55 h 0.212 c 1.14,0 2.56,0 2.988,-1.123 0.357,-0.964 0.357,-3.691 0.357,-4.855 v -9.906 c 0,-1.165 0,-3.891 -0.356,-4.854 -0.429,-1.124 -1.849,-1.124 -2.989,-1.124 h -0.212 v -1.552 c 0,0.004 3.592,0.154 5.559,0.154 2.264,0 5.797,-0.154 5.797,-0.154 v 1.552 H 2.99 c -1.14,0 -2.56,0 -2.989,1.122 -0.357,0.965 -0.357,3.691 -0.357,4.856 v 9.906 c 0,1.164 0,3.891 0.356,4.853" /></g><g
           transform="translate(46.144,30.9823)"
           id="g38"><path
             id="path40"
             style="fill:#231f20;fill-opacity:1;fill-rule:nonzero;stroke:none"
             d="m 0,0 v -6.475 h 1.54 l 0.007,0.204 c 0.14,4.213 1.752,4.391 5.384,4.391 0.125,0 0.25,0 0.373,10e-4 0.903,0.006 1.755,0.011 2.09,-0.322 0.112,-0.111 0.167,-0.265 0.167,-0.469 v -17.021 c 0,-2.526 -0.354,-3.57 -3.911,-3.717 l -0.203,-0.008 v -1.543 c 0,0 4.147,0.152 6.546,0.152 1.831,0 5.921,-0.152 5.921,-0.152 v 1.543 l -0.204,0.008 c -3.557,0.147 -3.91,1.191 -3.91,3.717 V -2.67 c 0,0.175 0.053,0.313 0.163,0.422 0.41,0.403 1.54,0.386 2.448,0.373 0.172,-0.003 0.341,-0.005 0.501,-0.005 3.551,0 4.696,-1.028 4.903,-4.397 l 0.012,-0.198 h 1.529 V 0 c 0,0 -8.962,-0.059 -11.678,-0.059 C 8.962,-0.059 0,0 0,0" /></g><g
           transform="translate(11.1045,19.1585)"
           id="g42"><path
             id="path44"
             style="fill:#231f20;fill-opacity:1;fill-rule:nonzero;stroke:none"
             d="m 0,0 c 0,0 -0.001,9.014 -0.002,9.067 -0.006,0.36 -0.016,0.851 0.284,0.991 0.208,0.091 2.214,0.019 2.323,0.019 3.162,0 4.977,-1.851 4.977,-5.076 C 7.582,2.65 6.957,1.302 5.556,0.625 4.25,-0.005 0,0 0,0 m 16.868,-11.565 c -1.791,0.281 -2.329,0.484 -3.505,1.845 l -7.371,8.462 c 3.882,0.506 6.275,3.072 6.275,6.778 0,2.413 -0.933,4.153 -2.768,5.173 -1.397,0.776 -3.337,1.153 -5.936,1.153 -0.777,-0.019 -2.648,-0.083 -4.709,-0.083 -2.137,0 -6.577,0.086 -6.577,0.086 v -1.551 h 0.308 C -6.238,10.306 -4.914,10.3 -4.562,9.183 -4.24,8.216 -4.24,5.489 -4.24,4.593 V -5.585 c 0,-1.124 0,-2.831 -0.149,-3.998 -0.044,-0.345 -0.101,-0.645 -0.174,-0.866 -0.36,-1.114 -1.795,-1.114 -2.949,-1.114 h -0.211 v -1.551 c 0,0 3.456,0.153 5.766,0.153 1.986,0 5.44,-0.149 5.44,-0.153 v 1.551 H 3.176 c -1.157,-0.005 -2.47,-0.002 -2.853,1.116 -0.074,0.221 -0.13,0.522 -0.174,0.864 C 0,-8.425 0,-6.764 0,-5.857 v 4.161 C 1.379,-1.708 1.499,-1.853 2.208,-2.71 2.34,-2.868 2.49,-3.048 2.663,-3.248 l 6.152,-7.634 1.809,-2.232 c 0,0 1.983,0.084 2.947,0.084 1.401,0 3.476,-0.087 3.476,-0.087 v 1.524 z" /></g><g
           transform="translate(86.7007,19.3958)"
           id="g46"><path
             id="path48"
             style="fill:#231f20;fill-opacity:1;fill-rule:nonzero;stroke:none"
             d="m 0,0 h 3 c 1.521,0 2.321,0.7 2.321,1.96 0,1.301 -0.84,1.94 -2.28,1.94 H 0 Z M 2.36,-2.36 H 0 V -7.882 H -3.001 V 6.421 H 3.28 c 1.661,0 2.901,-0.48 3.741,-1.34 0.8,-0.82 1.281,-1.82 1.281,-3.101 0,-2.001 -1.041,-3.401 -2.841,-4.001 L 9.042,-7.882 H 5.681 Z" /></g><g
           transform="translate(103.6416,16.6351)"
           id="g50"><path
             id="path52"
             style="fill:#231f20;fill-opacity:1;fill-rule:nonzero;stroke:none"
             d="m 0,0 c 0,2 -0.94,3.36 -2.601,3.36 -1.68,0 -2.6,-1.36 -2.6,-3.36 0,-2 0.92,-3.341 2.6,-3.341 C -0.94,-3.341 0,-2 0,0 m -7.962,0 c 0,3.061 2.181,5.421 5.361,5.421 3.181,0 5.362,-2.36 5.362,-5.421 0,-3.061 -2.181,-5.421 -5.362,-5.421 -3.18,0 -5.361,2.36 -5.361,5.421" /></g><g
           transform="translate(107.1597,16.6351)"
           id="g54"><path
             id="path56"
             style="fill:#231f20;fill-opacity:1;fill-rule:nonzero;stroke:none"
             d="m 0,0 c 0,3.061 2,5.421 5.121,5.421 2.661,0 4.301,-1.54 4.661,-3.761 H 7.122 C 6.942,2.561 6.242,3.24 5.241,3.24 3.601,3.24 2.761,1.98 2.761,0 c 0,-1.94 0.78,-3.24 2.44,-3.24 1.101,0 1.881,0.58 2.061,1.74 h 2.62 C 9.702,-3.681 8.002,-5.421 5.261,-5.421 2.021,-5.421 0,-3.061 0,0" /></g><g
           transform="translate(120.9404,20.4359)"
           id="g58"><path
             id="path60"
             style="fill:#231f20;fill-opacity:1;fill-rule:nonzero;stroke:none"
             d="m 0,0 h 0.06 c 0.74,1.08 1.581,1.62 2.981,1.62 2.12,0 3.541,-1.599 3.541,-3.841 V -8.922 H 3.861 v 6.302 c 0,1.099 -0.64,1.88 -1.78,1.88 C 0.88,-0.74 0,-1.7 0,-3.101 V -8.922 H -2.72 V 5.381 H 0 Z" /></g><g
           transform="translate(131.4199,17.7552)"
           id="g62"><path
             id="path64"
             style="fill:#231f20;fill-opacity:1;fill-rule:nonzero;stroke:none"
             d="M 0,0 H 4.561 C 4.481,1.301 3.621,2.2 2.38,2.2 0.94,2.2 0.24,1.341 0,0 m -2.721,-1.101 c 0,3.041 2.061,5.402 5.062,5.402 3.3,0 5.061,-2.521 5.061,-6.181 H -0.04 c 0.2,-1.581 1.081,-2.56 2.621,-2.56 1.06,0 1.68,0.479 1.98,1.259 h 2.681 c -0.381,-1.82 -2.001,-3.36 -4.641,-3.36 -3.401,0 -5.322,2.38 -5.322,5.44" /></g><g
           transform="translate(139.4395,14.8343)"
           id="g66"><path
             id="path68"
             style="fill:#231f20;fill-opacity:1;fill-rule:nonzero;stroke:none"
             d="m 0,0 h 2.521 c 0.179,-1.18 1.02,-1.7 2.24,-1.7 1.2,0 1.88,0.46 1.88,1.18 0,0.981 -1.3,1.081 -2.701,1.361 C 2.1,1.2 0.3,1.701 0.3,3.941 c 0,2.221 1.84,3.281 4.181,3.281 2.7,0 4.201,-1.34 4.401,-3.401 H 6.421 c -0.12,1.101 -0.82,1.5 -1.98,1.5 C 3.38,5.321 2.68,4.922 2.68,4.182 2.68,3.301 4.041,3.221 5.501,2.921 7.221,2.561 9.122,2.081 9.122,-0.319 9.122,-2.38 7.361,-3.62 4.801,-3.62 1.82,-3.62 0.16,-2.18 0,0" /></g><g
           transform="translate(148.9795,21.7757)"
           id="g70"><path
             id="path72"
             style="fill:#231f20;fill-opacity:1;fill-rule:nonzero;stroke:none"
             d="M 0,0 H 1.42 V 3.201 H 4.081 V 0 h 1.76 v -1.8 h -1.76 v -5.441 c 0,-0.76 0.42,-1.021 1.02,-1.021 0.34,0 0.8,0.021 0.8,0.021 v -2.001 c 0,0 -0.62,-0.039 -1.7,-0.039 -1.321,0 -2.781,0.519 -2.781,2.46 V -1.8 H 0 Z" /></g><g
           transform="translate(158.3398,17.7552)"
           id="g74"><path
             id="path76"
             style="fill:#231f20;fill-opacity:1;fill-rule:nonzero;stroke:none"
             d="M 0,0 H 4.561 C 4.481,1.301 3.621,2.2 2.38,2.2 0.94,2.2 0.24,1.341 0,0 m -2.721,-1.101 c 0,3.041 2.061,5.402 5.062,5.402 3.3,0 5.061,-2.521 5.061,-6.181 H -0.04 c 0.2,-1.581 1.081,-2.56 2.621,-2.56 1.06,0 1.68,0.479 1.98,1.259 h 2.681 c -0.381,-1.82 -2.001,-3.36 -4.641,-3.36 -3.401,0 -5.322,2.38 -5.322,5.44" /></g><g
           transform="translate(169.6201,20.1361)"
           id="g78"><path
             id="path80"
             style="fill:#231f20;fill-opacity:1;fill-rule:nonzero;stroke:none"
             d="m 0,0 h 0.06 c 0.62,1.16 1.32,1.76 2.52,1.76 0.3,0 0.481,-0.02 0.641,-0.08 V -0.7 H 3.161 C 1.38,-0.521 0.1,-1.461 0.1,-3.621 V -8.622 H -2.621 V 1.64 H 0 Z" /></g><path
           id="path82"
           style="fill:#231f20;fill-opacity:1;fill-rule:nonzero;stroke:none"
           d="m 177.619,25.817 h 2.899 V 11.514 h -2.899 z" /><g
           transform="translate(185.1797,20.3763)"
           id="g84"><path
             id="path86"
             style="fill:#231f20;fill-opacity:1;fill-rule:nonzero;stroke:none"
             d="m 0,0 h 0.06 c 0.7,1.1 1.64,1.68 3.041,1.68 2.12,0 3.541,-1.6 3.541,-3.841 V -8.862 H 3.921 v 6.301 c 0,1.1 -0.641,1.88 -1.78,1.88 -1.202,0 -2.081,-0.96 -2.081,-2.36 V -8.862 H -2.66 V 1.399 H 0 Z" /></g><g
           transform="translate(192.8584,14.8343)"
           id="g88"><path
             id="path90"
             style="fill:#231f20;fill-opacity:1;fill-rule:nonzero;stroke:none"
             d="m 0,0 h 2.521 c 0.179,-1.18 1.02,-1.7 2.24,-1.7 1.2,0 1.881,0.46 1.881,1.18 0,0.981 -1.301,1.081 -2.702,1.361 -1.839,0.359 -3.64,0.86 -3.64,3.1 0,2.221 1.841,3.281 4.18,3.281 2.702,0 4.202,-1.34 4.402,-3.401 H 6.421 c -0.12,1.101 -0.82,1.5 -1.981,1.5 -1.059,0 -1.759,-0.399 -1.759,-1.139 0,-0.881 1.36,-0.961 2.82,-1.261 1.721,-0.36 3.621,-0.84 3.621,-3.24 C 9.122,-2.38 7.361,-3.62 4.801,-3.62 1.82,-3.62 0.16,-2.18 0,0" /></g><g
           transform="translate(202.3984,21.7757)"
           id="g92"><path
             id="path94"
             style="fill:#231f20;fill-opacity:1;fill-rule:nonzero;stroke:none"
             d="M 0,0 H 1.42 V 3.201 H 4.081 V 0 h 1.76 v -1.8 h -1.76 v -5.441 c 0,-0.76 0.42,-1.021 1.02,-1.021 0.34,0 0.8,0.021 0.8,0.021 v -2.001 c 0,0 -0.62,-0.039 -1.7,-0.039 -1.32,0 -2.781,0.519 -2.781,2.46 V -1.8 H 0 Z" /></g><path
           id="path96"
           style="fill:#231f20;fill-opacity:1;fill-rule:nonzero;stroke:none"
           d="m 209.638,21.776 h 2.723 V 11.514 h -2.723 z m 0,4.041 h 2.723 v -2.44 h -2.723 z" /><g
           transform="translate(213.5186,21.7757)"
           id="g98"><path
             id="path100"
             style="fill:#231f20;fill-opacity:1;fill-rule:nonzero;stroke:none"
             d="M 0,0 H 1.42 V 3.201 H 4.081 V 0 h 1.76 v -1.8 h -1.76 v -5.441 c 0,-0.76 0.42,-1.021 1.02,-1.021 0.34,0 0.8,0.021 0.8,0.021 v -2.001 c 0,0 -0.62,-0.039 -1.701,-0.039 -1.319,0 -2.78,0.519 -2.78,2.46 V -1.8 H 0 Z" /></g><g
           transform="translate(227.2393,11.514)"
           id="g102"><path
             id="path104"
             style="fill:#231f20;fill-opacity:1;fill-rule:nonzero;stroke:none"
             d="M 0,0 V 1.2 H -0.06 C -0.76,0.26 -1.561,-0.28 -3,-0.28 c -2.281,0 -3.562,1.461 -3.562,3.701 v 6.841 H -3.86 V 3.881 c 0,-1.2 0.54,-1.86 1.7,-1.86 1.28,0 2.06,0.959 2.06,2.32 v 5.921 H 2.621 V 0 Z" /></g><g
           transform="translate(231.0176,21.7757)"
           id="g106"><path
             id="path108"
             style="fill:#231f20;fill-opacity:1;fill-rule:nonzero;stroke:none"
             d="M 0,0 H 1.42 V 3.201 H 4.081 V 0 h 1.76 v -1.8 h -1.76 v -5.441 c 0,-0.76 0.42,-1.021 1.02,-1.021 0.34,0 0.8,0.021 0.8,0.021 v -2.001 c 0,0 -0.62,-0.039 -1.7,-0.039 -1.32,0 -2.781,0.519 -2.781,2.46 V -1.8 H 0 Z" /></g><g
           transform="translate(240.3779,17.7552)"
           id="g110"><path
             id="path112"
             style="fill:#231f20;fill-opacity:1;fill-rule:nonzero;stroke:none"
             d="M 0,0 H 4.562 C 4.481,1.301 3.621,2.2 2.381,2.2 0.94,2.2 0.24,1.341 0,0 m -2.721,-1.101 c 0,3.041 2.061,5.402 5.062,5.402 3.301,0 5.06,-2.521 5.06,-6.181 H -0.04 c 0.2,-1.581 1.08,-2.56 2.621,-2.56 1.06,0 1.68,0.479 1.981,1.259 h 2.679 c -0.38,-1.82 -2,-3.36 -4.64,-3.36 -3.401,0 -5.322,2.38 -5.322,5.44" /></g><g
           transform="translate(259.8594,16.6351)"
           id="g114"><path
             id="path116"
             style="fill:#231f20;fill-opacity:1;fill-rule:nonzero;stroke:none"
             d="m 0,0 c 0,2 -0.94,3.36 -2.601,3.36 -1.68,0 -2.6,-1.36 -2.6,-3.36 0,-2 0.92,-3.341 2.6,-3.341 C -0.94,-3.341 0,-2 0,0 m -7.962,0 c 0,3.061 2.181,5.421 5.361,5.421 3.181,0 5.362,-2.36 5.362,-5.421 0,-3.061 -2.181,-5.421 -5.362,-5.421 -3.18,0 -5.361,2.36 -5.361,5.421" /></g><g
           transform="translate(263.0771,21.7757)"
           id="g118"><path
             id="path120"
             style="fill:#231f20;fill-opacity:1;fill-rule:nonzero;stroke:none"
             d="m 0,0 h 1.4 v 0.921 c 0,2.5 1.941,3.381 4.561,3.1 v -2.1 C 4.681,1.98 4.121,1.821 4.121,0.761 V 0 h 1.84 v -1.88 h -1.84 v -8.382 H 1.4 V -1.88 H 0 Z" /></g><g
           transform="translate(273.1172,25.8167)"
           id="g122"><path
             id="path124"
             style="fill:#231f20;fill-opacity:1;fill-rule:nonzero;stroke:none"
             d="M 0,0 H 11.502 V -2.44 H 7.201 v -11.863 h -2.9 V -2.44 H 0 Z" /></g><g
           transform="translate(285.7773,17.7552)"
           id="g126"><path
             id="path128"
             style="fill:#231f20;fill-opacity:1;fill-rule:nonzero;stroke:none"
             d="M 0,0 H 4.562 C 4.479,1.301 3.621,2.2 2.381,2.2 0.939,2.2 0.24,1.341 0,0 m -2.721,-1.101 c 0,3.041 2.061,5.402 5.062,5.402 3.301,0 5.06,-2.521 5.06,-6.181 H -0.04 c 0.2,-1.581 1.08,-2.56 2.621,-2.56 1.06,0 1.68,0.479 1.981,1.259 h 2.679 c -0.38,-1.82 -2,-3.36 -4.64,-3.36 -3.401,0 -5.322,2.38 -5.322,5.44" /></g><g
           transform="translate(293.9365,16.6351)"
           id="g130"><path
             id="path132"
             style="fill:#231f20;fill-opacity:1;fill-rule:nonzero;stroke:none"
             d="m 0,0 c 0,3.061 2.001,5.421 5.121,5.421 2.661,0 4.301,-1.54 4.661,-3.761 H 7.122 C 6.941,2.561 6.241,3.24 5.241,3.24 3.601,3.24 2.761,1.98 2.761,0 c 0,-1.94 0.78,-3.24 2.44,-3.24 1.101,0 1.881,0.58 2.061,1.74 h 2.62 C 9.702,-3.681 8.002,-5.421 5.262,-5.421 2.021,-5.421 0,-3.061 0,0" /></g><g
           transform="translate(307.7178,20.4359)"
           id="g134"><path
             id="path136"
             style="fill:#231f20;fill-opacity:1;fill-rule:nonzero;stroke:none"
             d="m 0,0 h 0.061 c 0.74,1.08 1.58,1.62 2.98,1.62 2.12,0 3.541,-1.599 3.541,-3.841 V -8.922 H 3.861 v 6.302 c 0,1.099 -0.64,1.88 -1.78,1.88 C 0.88,-0.74 0,-1.7 0,-3.101 V -8.922 H -2.721 V 5.381 H 0 Z" /></g><g
           transform="translate(318.6377,20.3763)"
           id="g138"><path
             id="path140"
             style="fill:#231f20;fill-opacity:1;fill-rule:nonzero;stroke:none"
             d="m 0,0 h 0.06 c 0.7,1.1 1.64,1.68 3.041,1.68 2.12,0 3.541,-1.6 3.541,-3.841 V -8.862 H 3.921 v 6.301 c 0,1.1 -0.641,1.88 -1.78,1.88 -1.201,0 -2.081,-0.96 -2.081,-2.36 V -8.862 H -2.661 V 1.399 H 0 Z" /></g><g
           transform="translate(334.4189,16.6351)"
           id="g142"><path
             id="path144"
             style="fill:#231f20;fill-opacity:1;fill-rule:nonzero;stroke:none"
             d="m 0,0 c 0,2 -0.94,3.36 -2.601,3.36 -1.68,0 -2.6,-1.36 -2.6,-3.36 0,-2 0.92,-3.341 2.6,-3.341 C -0.94,-3.341 0,-2 0,0 m -7.962,0 c 0,3.061 2.181,5.421 5.361,5.421 3.181,0 5.362,-2.36 5.362,-5.421 0,-3.061 -2.181,-5.421 -5.362,-5.421 -3.18,0 -5.361,2.36 -5.361,5.421" /></g><path
           id="path146"
           style="fill:#231f20;fill-opacity:1;fill-rule:nonzero;stroke:none"
           d="M 338.477,25.817 H 341.2 V 11.514 h -2.723 z" /><g
           transform="translate(350.458,16.6351)"
           id="g148"><path
             id="path150"
             style="fill:#231f20;fill-opacity:1;fill-rule:nonzero;stroke:none"
             d="m 0,0 c 0,2 -0.94,3.36 -2.601,3.36 -1.68,0 -2.6,-1.36 -2.6,-3.36 0,-2 0.92,-3.341 2.6,-3.341 C -0.94,-3.341 0,-2 0,0 m -7.962,0 c 0,3.061 2.181,5.421 5.361,5.421 3.181,0 5.362,-2.36 5.362,-5.421 0,-3.061 -2.181,-5.421 -5.362,-5.421 -3.18,0 -5.361,2.36 -5.361,5.421" /></g><g
           transform="translate(361.3779,17.095)"
           id="g152"><path
             id="path154"
             style="fill:#231f20;fill-opacity:1;fill-rule:nonzero;stroke:none"
             d="m 0,0 c 0,1.5 -0.8,2.78 -2.44,2.78 -1.38,0 -2.3,-1.08 -2.3,-2.8 0,-1.74 0.92,-2.76 2.32,-2.76 C -0.7,-2.78 0,-1.521 0,0 m -7.181,-5.881 h 2.701 c 0.219,-0.64 0.799,-1.14 2.06,-1.14 1.54,0 2.28,0.74 2.28,2.14 v 1.12 h -0.059 c -0.601,-0.679 -1.381,-1.2 -2.681,-1.2 -2.281,0 -4.521,1.801 -4.521,4.901 0,3.061 1.839,5.021 4.441,5.021 1.28,0 2.221,-0.5 2.841,-1.36 h 0.039 v 1.08 h 2.621 v -9.482 c 0,-1.44 -0.46,-2.421 -1.221,-3.121 -0.859,-0.8 -2.179,-1.16 -3.7,-1.16 -2.801,0 -4.521,1.2 -4.801,3.201" /></g><g
           transform="translate(365.8965,10.2933)"
           id="g156"><path
             id="path158"
             style="fill:#231f20;fill-opacity:1;fill-rule:nonzero;stroke:none"
             d="m 0,0 h 0.96 c 1.08,0 1.52,0.561 1.52,1.4 0,0.561 -0.2,1.221 -0.78,2.782 l -2.761,7.3 H 1.8 L 3.32,6.862 C 3.641,5.922 3.98,4.621 3.98,4.621 h 0.041 c 0,0 0.28,1.301 0.6,2.241 l 1.44,4.62 H 8.802 L 5.221,0.961 C 4.44,-1.32 3.681,-2.14 1.6,-2.14 H 0 Z" /></g></g></g></g></svg>